<svg width="24" height="25" viewBox="0 0 24 25" fill="currentColor" xmlns="http://www.w3.org/2000/svg">
<path d="M12 0.0458984C5.373 0.0458984 0 5.4189 0 12.0459C0 18.6729 5.373 24.0459 12 24.0459C18.627 24.0459 24 18.6729 24 12.0459C24 5.4189 18.627 0.0458984 12 0.0458984ZM14.218 18.6619C13.864 18.7309 13.75 18.5129 13.75 18.3259V16.4049C13.75 15.7519 13.521 15.3259 13.269 15.1089C14.829 14.9359 16.467 14.3439 16.467 11.6549C16.467 10.8899 16.194 10.2659 15.746 9.7759C15.818 9.5989 16.058 8.8869 15.677 7.9229C15.677 7.9229 15.09 7.7349 13.754 8.6399C13.193 8.4859 12.595 8.4089 12 8.4059C11.405 8.4089 10.807 8.4859 10.247 8.6409C8.91 7.7359 8.322 7.9239 8.322 7.9239C7.943 8.8879 8.182 9.5999 8.255 9.7759C7.807 10.2659 7.533 10.8899 7.533 11.6549C7.533 14.3369 9.167 14.9369 10.722 15.1139C10.522 15.2889 10.341 15.5969 10.278 16.0499C9.878 16.2289 8.865 16.5379 8.241 15.4679C8.241 15.4679 7.871 14.7959 7.168 14.7459C7.168 14.7459 6.485 14.7369 7.12 15.1719C7.12 15.1719 7.58 15.3869 7.897 16.1959C7.897 16.1959 8.302 17.4459 10.25 17.0219V18.3249C10.25 18.5099 10.137 18.7269 9.788 18.6619C7.006 17.7369 5 15.1129 5 12.0209C5 8.1539 8.135 5.0209 12 5.0209C15.865 5.0209 19 8.1539 19 12.0209C19 15.1119 16.997 17.7359 14.218 18.6619Z" fill="currentColor"/>
</svg>
