<svg width="22" height="30" viewBox="0 0 22 30" fill="none" xmlns="http://www.w3.org/2000/svg">
<path d="M9.29193 5.5C9.51967 6.21161 9.63354 6.80461 9.63354 7.27902C9.63354 7.70599 9.56522 8.27528 9.42857 8.98689C6.37681 8.98689 4.85093 10.6236 4.85093 13.897C4.85093 15.083 5.44306 15.7472 6.62733 15.8895C8.35818 16.0318 9.2236 17.1941 9.2236 19.3764C9.2236 21.0368 8.83644 22.3177 8.06211 23.2191C7.33333 24.073 5.98965 24.5 4.03106 24.5C1.34369 24.5 0 22.6024 0 18.8071C0 15.0119 0.728779 11.857 2.18634 9.34269C3.64389 6.78089 6.01242 5.5 9.29193 5.5ZM21.6584 5.5C21.8861 6.21161 22 6.80461 22 7.27902C22 7.70599 21.9317 8.27528 21.795 8.98689C18.7433 8.98689 17.2174 10.6236 17.2174 13.897C17.2174 15.083 17.8095 15.7472 18.9938 15.8895C20.7246 16.0318 21.5901 17.1941 21.5901 19.3764C21.5901 21.0368 21.2029 22.3177 20.4286 23.2191C19.6998 24.073 18.3561 24.5 16.3975 24.5C13.7101 24.5 12.3665 22.6024 12.3665 18.8071C12.3665 15.0119 13.0952 11.857 14.5528 9.34269C16.0104 6.78089 18.3789 5.5 21.6584 5.5Z" fill="#5FCFCE"/>
</svg>
