<svg width="275" height="94" viewBox="0 0 275 94" fill="none" xmlns="http://www.w3.org/2000/svg">
<path d="M15.4798 18.8346C15.4798 19.9059 15.2133 20.913 14.6802 21.8558C14.1685 22.7986 13.4009 23.5914 12.3774 24.2342C11.3753 24.877 10.1813 25.2627 8.79534 25.3913V27.9947H6.71644V25.3913C4.71217 25.1984 3.0917 24.5663 1.85502 23.495C0.618339 22.4236 0 21.0094 0 19.2524H3.90193C3.9659 20.088 4.23243 20.7844 4.70151 21.3415C5.1706 21.8772 5.84224 22.2201 6.71644 22.37V15.2991C5.28787 14.9348 4.12582 14.5705 3.23029 14.2063C2.33476 13.8206 1.56717 13.2206 0.927509 12.4064C0.30917 11.5921 0 10.4779 0 9.06373C0 7.28526 0.618339 5.8175 1.85502 4.66043C3.0917 3.48193 4.71217 2.79626 6.71644 2.60341V0H8.79534V2.60341C10.6717 2.77483 12.1749 3.37479 13.305 4.4033C14.4563 5.41038 15.1067 6.80315 15.2559 8.58161H11.354C11.29 7.91737 11.0342 7.32812 10.5864 6.81387C10.1386 6.27818 9.54162 5.91392 8.79534 5.72108V12.6635C10.2239 13.0063 11.386 13.3706 12.2815 13.7563C13.177 14.1206 13.934 14.7098 14.5523 15.524C15.1706 16.3169 15.4798 17.4204 15.4798 18.8346ZM3.71004 8.87088C3.71004 9.7494 3.9659 10.4351 4.47763 10.9279C5.01068 11.4207 5.75695 11.8171 6.71644 12.1171V5.62465C5.7996 5.73179 5.06399 6.06391 4.50961 6.62102C3.97656 7.17813 3.71004 7.92808 3.71004 8.87088ZM8.79534 22.37C9.73351 22.2201 10.4691 21.8451 11.0022 21.2451C11.5352 20.6237 11.8018 19.8845 11.8018 19.0274C11.8018 18.1703 11.5352 17.5061 11.0022 17.0347C10.4904 16.5418 9.75484 16.1454 8.79534 15.8455V22.37Z" fill="#5FCFCE"/>
<path d="M200.875 71.5212L195.438 93.9998H193.199L198.616 71.5212H200.875Z" fill="#5FCFCE"/>
<path d="M228.764 76.5232V90.4844H226.486V80.9224L222.248 90.4844H220.669L216.411 80.9224V90.4844H214.132V76.5232H216.591L221.468 87.4711L226.326 76.5232H228.764Z" fill="#5FCFCE"/>
<path d="M236.537 90.6651C235.498 90.6651 234.558 90.4308 233.719 89.9621C232.879 89.48 232.219 88.8104 231.74 87.9533C231.26 87.0828 231.02 86.0784 231.02 84.9401C231.02 83.8151 231.267 82.8174 231.76 81.9469C232.253 81.0765 232.926 80.4069 233.779 79.9381C234.631 79.4694 235.584 79.2351 236.637 79.2351C237.69 79.2351 238.643 79.4694 239.495 79.9381C240.348 80.4069 241.021 81.0765 241.514 81.9469C242.007 82.8174 242.254 83.8151 242.254 84.9401C242.254 86.065 242.001 87.0627 241.494 87.9332C240.988 88.8037 240.295 89.48 239.416 89.9621C238.549 90.4308 237.59 90.6651 236.537 90.6651ZM236.537 88.6764C237.123 88.6764 237.67 88.5358 238.176 88.2546C238.696 87.9733 239.116 87.5515 239.436 86.989C239.755 86.4266 239.915 85.7436 239.915 84.9401C239.915 84.1365 239.762 83.4602 239.456 82.9112C239.149 82.3487 238.743 81.9268 238.236 81.6456C237.73 81.3644 237.183 81.2238 236.597 81.2238C236.011 81.2238 235.464 81.3644 234.958 81.6456C234.465 81.9268 234.072 82.3487 233.779 82.9112C233.485 83.4602 233.339 84.1365 233.339 84.9401C233.339 86.1319 233.639 87.056 234.238 87.7122C234.851 88.355 235.618 88.6764 236.537 88.6764Z" fill="#5FCFCE"/>
<path d="M250.064 79.2351C250.93 79.2351 251.703 79.4158 252.383 79.7774C253.076 80.139 253.615 80.6747 254.002 81.3845C254.388 82.0942 254.581 82.9513 254.581 83.9557V90.4844H252.323V84.2972C252.323 83.3062 252.076 82.5496 251.583 82.0273C251.09 81.4916 250.417 81.2238 249.564 81.2238C248.711 81.2238 248.032 81.4916 247.525 82.0273C247.032 82.5496 246.786 83.3062 246.786 84.2972V90.4844H244.507V79.4158H246.786V80.6814C247.159 80.2261 247.632 79.8712 248.205 79.6167C248.791 79.3623 249.411 79.2351 250.064 79.2351Z" fill="#5FCFCE"/>
<path d="M260.147 81.284V87.4109C260.147 87.826 260.24 88.1274 260.427 88.3148C260.627 88.4889 260.96 88.576 261.426 88.576H262.825V90.4844H261.026C260 90.4844 259.214 90.2433 258.668 89.7612C258.121 89.2791 257.848 88.4956 257.848 87.4109V81.284H256.549V79.4158H257.848V76.6638H260.147V79.4158H262.825V81.284H260.147Z" fill="#5FCFCE"/>
<path d="M270.623 79.2351C271.462 79.2351 272.208 79.4158 272.861 79.7774C273.528 80.139 274.047 80.6747 274.421 81.3845C274.807 82.0942 275 82.9513 275 83.9557V90.4844H272.741V84.2972C272.741 83.3062 272.495 82.5496 272.002 82.0273C271.509 81.4916 270.836 81.2238 269.983 81.2238C269.13 81.2238 268.45 81.4916 267.944 82.0273C267.451 82.5496 267.204 83.3062 267.204 84.2972V90.4844H264.926V75.6192H267.204V80.7015C267.591 80.2328 268.077 79.8712 268.664 79.6167C269.263 79.3623 269.916 79.2351 270.623 79.2351Z" fill="#5FCFCE"/>
<path d="M44.8159 71.8029C52.4918 65.1337 58.5287 59.6697 62.9263 55.4111C67.404 51.0721 71.122 46.5723 74.0804 41.9119C77.0389 37.2515 78.5181 32.5911 78.5181 27.9306C78.5181 23.1095 77.3587 19.3329 75.0399 16.601C72.8011 13.869 69.243 12.503 64.3656 12.503C59.6481 12.503 55.97 14.0297 53.3314 17.0831C50.7728 20.0561 49.4135 24.0737 49.2536 29.1359H36.0605C36.3004 19.9758 39.019 12.9851 44.2162 8.16399C49.4934 3.26251 56.1699 0.811768 64.2456 0.811768C72.961 0.811768 79.7574 3.22233 84.6348 8.04346C89.5922 12.8646 92.0709 19.2928 92.0709 27.328C92.0709 33.1133 90.5917 38.6978 87.6332 44.0814C84.7548 49.3847 81.2766 54.1656 77.1988 58.4243C73.2009 62.6026 68.0836 67.4639 61.8469 73.0082L56.4498 77.8293H94.4696V89.2795H36.1805V79.2757L44.8159 71.8029Z" fill="#5FCFCE"/>
<path d="M162.851 14.4315H122.673V38.4166C124.352 36.1667 126.83 34.2785 130.109 32.7518C133.467 31.2251 137.025 30.4617 140.783 30.4617C147.499 30.4617 152.936 31.9081 157.094 34.8007C161.332 37.6934 164.33 41.3494 166.09 45.7688C167.929 50.1882 168.848 54.8486 168.848 59.7501C168.848 65.6961 167.689 70.9994 165.37 75.6598C163.131 80.2399 159.733 83.8557 155.175 86.5074C150.698 89.159 145.181 90.4848 138.624 90.4848C129.909 90.4848 122.912 88.3153 117.635 83.9763C112.358 79.6373 109.2 73.8921 108.16 66.7407H121.473C122.353 70.5173 124.312 73.5305 127.35 75.7803C130.388 77.9499 134.186 79.0346 138.744 79.0346C144.421 79.0346 148.659 77.307 151.457 73.8519C154.336 70.3968 155.775 65.8167 155.775 60.1117C155.775 54.3263 154.336 49.9069 151.457 46.8536C148.579 43.7198 144.341 42.153 138.744 42.153C134.826 42.153 131.508 43.1574 128.789 45.1662C126.151 47.0946 124.232 49.7462 123.032 53.121H110.079V2.37864H162.851V14.4315Z" fill="#5FCFCE"/>
</svg>
