<svg width="224" height="94" viewBox="0 0 224 94" fill="none" xmlns="http://www.w3.org/2000/svg">
<path d="M0 17.0432C0 13.765 0.734093 10.837 2.20228 8.25901C3.70238 5.64923 5.72911 3.62824 8.28248 2.19604C10.8678 0.732013 13.7563 0 16.948 0C20.6823 0 23.9538 0.9548 26.7625 2.8644C29.5712 4.774 31.5341 7.41561 32.6512 10.7892H24.9432C24.1772 9.1979 23.092 8.0044 21.6877 7.20873C20.3152 6.41307 18.7194 6.01524 16.9001 6.01524C14.9531 6.01524 13.2137 6.47672 11.6816 7.39969C10.1815 8.29084 9.00061 9.56391 8.13885 11.2189C7.30901 12.8739 6.89409 14.8153 6.89409 17.0432C6.89409 19.2392 7.30901 21.1806 8.13885 22.8674C9.00061 24.5224 10.1815 25.8114 11.6816 26.7344C13.2137 27.6255 14.9531 28.0711 16.9001 28.0711C18.7194 28.0711 20.3152 27.6733 21.6877 26.8776C23.092 26.0501 24.1772 24.8407 24.9432 23.2494H32.6512C31.5341 26.6548 29.5712 29.3123 26.7625 31.2219C23.9857 33.0997 20.7142 34.0386 16.948 34.0386C13.7563 34.0386 10.8678 33.3225 8.28248 31.8903C5.72911 30.4263 3.70238 28.4053 2.20228 25.8273C0.734093 23.2494 0 20.3213 0 17.0432Z" fill="#5FCFCE"/>
<path d="M50.1534 34.1818C47.6001 34.1818 45.302 33.6249 43.2593 32.5109C41.2167 31.3652 39.6048 29.7579 38.4239 27.6892C37.2749 25.6205 36.7004 23.2335 36.7004 20.5282C36.7004 17.8229 37.2909 15.4359 38.4718 13.3672C39.6846 11.2985 41.3284 9.70713 43.403 8.59319C45.4776 7.44743 47.7916 6.87455 50.3449 6.87455C52.8983 6.87455 55.2123 7.44743 57.2869 8.59319C59.3615 9.70713 60.9893 11.2985 62.1702 13.3672C63.3831 15.4359 63.9895 17.8229 63.9895 20.5282C63.9895 23.2335 63.3671 25.6205 62.1223 27.6892C60.9095 29.7579 59.2498 31.3652 57.1433 32.5109C55.0687 33.6249 52.7387 34.1818 50.1534 34.1818ZM50.1534 28.3575C51.3663 28.3575 52.4993 28.0711 53.5526 27.4982C54.6378 26.8935 55.4995 26.0024 56.1379 24.8248C56.7762 23.6472 57.0954 22.215 57.0954 20.5282C57.0954 18.0139 56.4251 16.0884 55.0846 14.7516C53.776 13.3831 52.1642 12.6988 50.2492 12.6988C48.3342 12.6988 46.7224 13.3831 45.4138 14.7516C44.1371 16.0884 43.4987 18.0139 43.4987 20.5282C43.4987 23.0425 44.1211 24.9839 45.3659 26.3525C46.6426 27.6892 48.2384 28.3575 50.1534 28.3575Z" fill="#5FCFCE"/>
<path d="M83.6039 6.92229C86.7637 6.92229 89.3171 7.92483 91.264 9.92991C93.2109 11.9032 94.1844 14.6721 94.1844 18.2367V33.7522H87.4818V19.1437C87.4818 17.0432 86.9552 15.4359 85.9019 14.322C84.8487 13.1762 83.4124 12.6034 81.5931 12.6034C79.7419 12.6034 78.2737 13.1762 77.1886 14.322C76.1353 15.4359 75.6087 17.0432 75.6087 19.1437V33.7522H68.9061V7.30421H75.6087V10.5983C76.5024 9.45251 77.6354 8.56137 79.0078 7.92483C80.4122 7.25647 81.9442 6.92229 83.6039 6.92229Z" fill="#5FCFCE"/>
<path d="M108.362 12.7943V25.5886C108.362 26.4798 108.569 27.1322 108.984 27.546C109.431 27.9279 110.165 28.1188 111.187 28.1188H114.299V33.7522H110.085C104.436 33.7522 101.611 31.0151 101.611 25.5409V12.7943H98.4517V7.30421H101.611V0.763838H108.362V7.30421H114.299V12.7943H108.362Z" fill="#5FCFCE"/>
<path d="M117.396 20.4327C117.396 17.7593 117.922 15.3882 118.976 13.3194C120.061 11.2507 121.513 9.65939 123.332 8.54545C125.184 7.43152 127.242 6.87455 129.508 6.87455C131.487 6.87455 133.211 7.27239 134.679 8.06805C136.179 8.86372 137.376 9.86626 138.27 11.0757V7.30421H145.02V33.7522H138.27V29.8852C137.408 31.1265 136.211 32.1608 134.679 32.9883C133.179 33.784 131.439 34.1818 129.46 34.1818C127.226 34.1818 125.184 33.6089 123.332 32.4632C121.513 31.3174 120.061 29.7102 118.976 27.6414C117.922 25.5409 117.396 23.138 117.396 20.4327ZM138.27 20.5282C138.27 18.905 137.95 17.5206 137.312 16.3748C136.674 15.1972 135.812 14.3061 134.727 13.7014C133.642 13.0648 132.477 12.7466 131.232 12.7466C129.987 12.7466 128.838 13.0489 127.785 13.6536C126.732 14.2583 125.87 15.1495 125.2 16.3271C124.561 17.4728 124.242 18.8414 124.242 20.4327C124.242 22.024 124.561 23.4244 125.2 24.6338C125.87 25.8114 126.732 26.7185 127.785 27.355C128.87 27.9915 130.019 28.3098 131.232 28.3098C132.477 28.3098 133.642 28.0074 134.727 27.4027C135.812 26.7662 136.674 25.8751 137.312 24.7293C137.95 23.5517 138.27 22.1513 138.27 20.5282Z" fill="#5FCFCE"/>
<path d="M149.843 20.5282C149.843 17.7911 150.401 15.4041 151.518 13.3672C152.636 11.2985 154.184 9.70713 156.162 8.59319C158.141 7.44743 160.407 6.87455 162.961 6.87455C166.248 6.87455 168.961 7.70205 171.1 9.35703C173.27 10.9802 174.722 13.2717 175.456 16.2316H168.227C167.844 15.0858 167.19 14.1947 166.264 13.5582C165.37 12.8898 164.253 12.5556 162.913 12.5556C160.998 12.5556 159.482 13.2558 158.365 14.6562C157.248 16.0247 156.689 17.9821 156.689 20.5282C156.689 23.0425 157.248 24.9998 158.365 26.4002C159.482 27.7687 160.998 28.453 162.913 28.453C165.626 28.453 167.397 27.2436 168.227 24.8248H175.456C174.722 27.6892 173.27 29.9648 171.1 31.6516C168.929 33.3384 166.216 34.1818 162.961 34.1818C160.407 34.1818 158.141 33.6249 156.162 32.5109C154.184 31.3652 152.636 29.7738 151.518 27.7369C150.401 25.6682 149.843 23.2653 149.843 20.5282Z" fill="#5FCFCE"/>
<path d="M188.17 12.7943V25.5886C188.17 26.4798 188.378 27.1322 188.793 27.546C189.239 27.9279 189.974 28.1188 190.995 28.1188H194.107V33.7522H189.894C184.244 33.7522 181.42 31.0151 181.42 25.5409V12.7943H178.26V7.30421H181.42V0.763838H188.17V7.30421H194.107V12.7943H188.17Z" fill="#5FCFCE"/>
<path d="M26.6667 55.0442V81.4921H19.9163V78.1503C19.0545 79.2961 17.9214 80.2032 16.5171 80.8715C15.1446 81.508 13.6445 81.8263 12.0168 81.8263C9.94217 81.8263 8.10694 81.3966 6.51108 80.5373C4.91523 79.6462 3.6545 78.3572 2.72891 76.6704C1.83523 74.9518 1.38839 72.9148 1.38839 70.5597V55.0442H8.09098V69.6049C8.09098 71.7054 8.61761 73.3286 9.67087 74.4743C10.7241 75.5883 12.1604 76.1452 13.9797 76.1452C15.8309 76.1452 17.2831 75.5883 18.3364 74.4743C19.3896 73.3286 19.9163 71.7054 19.9163 69.6049V55.0442H26.6667Z" fill="#5FCFCE"/>
<path d="M43.4295 81.9218C41.2592 81.9218 39.3122 81.5399 37.5887 80.776C35.8652 79.9804 34.4928 78.9142 33.4714 77.5774C32.482 76.2407 31.9394 74.7608 31.8436 73.1376H38.5941C38.7218 74.1561 39.2165 74.9995 40.0782 75.6679C40.9719 76.3362 42.0731 76.6704 43.3817 76.6704C44.6583 76.6704 45.6478 76.4158 46.3499 75.9065C47.084 75.3973 47.4511 74.7449 47.4511 73.9492C47.4511 73.0899 47.0042 72.4534 46.1106 72.0396C45.2488 71.594 43.8604 71.1166 41.9454 70.6074C39.9665 70.13 38.3388 69.6367 37.0621 69.1275C35.8173 68.6183 34.7321 67.8385 33.8065 66.7882C32.9129 65.7379 32.466 64.3217 32.466 62.5394C32.466 61.0753 32.8809 59.7386 33.7108 58.5292C34.5725 57.3198 35.7854 56.365 37.3493 55.6648C38.9452 54.9646 40.8123 54.6145 42.9508 54.6145C46.1106 54.6145 48.632 55.4102 50.5151 57.0015C52.3982 58.561 53.4355 60.6775 53.627 63.3509H47.2117C47.116 62.3007 46.6691 61.4732 45.8712 60.8685C45.1052 60.2319 44.0679 59.9137 42.7593 59.9137C41.5464 59.9137 40.6049 60.1365 39.9346 60.582C39.2963 61.0276 38.9771 61.6482 38.9771 62.4439C38.9771 63.335 39.4239 64.0193 40.3176 64.4967C41.2113 64.9423 42.5997 65.4038 44.4828 65.8812C46.3978 66.3586 47.9777 66.8519 49.2225 67.3611C50.4672 67.8703 51.5365 68.666 52.4301 69.7481C53.3557 70.7984 53.8345 72.1987 53.8664 73.9492C53.8664 75.4769 53.4355 76.8454 52.5738 78.0549C51.7439 79.2643 50.5311 80.2191 48.9352 80.9193C47.3713 81.5876 45.5361 81.9218 43.4295 81.9218Z" fill="#5FCFCE"/>
<path d="M78.5799 60.5343V73.3286C78.5799 74.2197 78.7874 74.8722 79.2023 75.2859C79.6492 75.6679 80.3833 75.8588 81.4046 75.8588H84.5165V81.4921H80.3035C74.6542 81.4921 71.8295 78.755 71.8295 73.2809V60.5343H68.6697V55.0442H71.8295V48.5038H78.5799V55.0442H84.5165V60.5343H78.5799Z" fill="#5FCFCE"/>
<path d="M101.115 81.9218C98.5614 81.9218 96.2634 81.3648 94.2207 80.2509C92.178 79.1051 90.5662 77.4979 89.3852 75.4292C88.2362 73.3604 87.6617 70.9734 87.6617 68.2682C87.6617 65.5629 88.2522 63.1759 89.4331 61.1072C90.646 59.0384 92.2897 57.4471 94.3643 56.3332C96.4389 55.1874 98.7529 54.6145 101.306 54.6145C103.86 54.6145 106.174 55.1874 108.248 56.3332C110.323 57.4471 111.951 59.0384 113.132 61.1072C114.344 63.1759 114.951 65.5629 114.951 68.2682C114.951 70.9734 114.328 73.3604 113.084 75.4292C111.871 77.4979 110.211 79.1051 108.105 80.2509C106.03 81.3648 103.7 81.9218 101.115 81.9218ZM101.115 76.0975C102.328 76.0975 103.461 75.8111 104.514 75.2382C105.599 74.6335 106.461 73.7423 107.099 72.5648C107.738 71.3872 108.057 69.955 108.057 68.2682C108.057 65.7539 107.386 63.8283 106.046 62.4916C104.737 61.1231 103.126 60.4388 101.211 60.4388C99.2955 60.4388 97.6837 61.1231 96.3751 62.4916C95.0984 63.8283 94.4601 65.7539 94.4601 68.2682C94.4601 70.7825 95.0825 72.7239 96.3272 74.0924C97.6039 75.4291 99.1998 76.0975 101.115 76.0975Z" fill="#5FCFCE"/>
<path d="M118.144 68.1727C118.144 65.4992 118.671 63.1282 119.724 61.0594C120.809 58.9907 122.277 57.3994 124.128 56.2854C125.98 55.1715 128.038 54.6145 130.304 54.6145C132.028 54.6145 133.672 54.9964 135.235 55.7603C136.799 56.4923 138.044 57.4789 138.97 58.7202V46.1646H145.768V81.4921H138.97V77.5774C138.14 78.8823 136.975 79.9326 135.475 80.7283C133.975 81.524 132.235 81.9218 130.256 81.9218C128.022 81.9218 125.98 81.3489 124.128 80.2031C122.277 79.0574 120.809 77.4501 119.724 75.3814C118.671 73.2809 118.144 70.8779 118.144 68.1727ZM139.018 68.2682C139.018 66.645 138.698 65.2605 138.06 64.1148C137.422 62.9372 136.56 62.046 135.475 61.4413C134.39 60.8048 133.225 60.4865 131.98 60.4865C130.735 60.4865 129.586 60.7889 128.533 61.3936C127.48 61.9983 126.618 62.8895 125.948 64.067C125.309 65.2128 124.99 66.5813 124.99 68.1727C124.99 69.764 125.309 71.1644 125.948 72.3738C126.618 73.5514 127.48 74.4584 128.533 75.095C129.618 75.7315 130.767 76.0498 131.98 76.0498C133.225 76.0498 134.39 75.7474 135.475 75.1427C136.56 74.5062 137.422 73.615 138.06 72.4693C138.698 71.2917 139.018 69.8913 139.018 68.2682Z" fill="#5FCFCE"/>
<path d="M150.591 68.1727C150.591 65.4992 151.117 63.1282 152.171 61.0594C153.256 58.9907 154.708 57.3994 156.527 56.2854C158.379 55.1715 160.437 54.6145 162.703 54.6145C164.682 54.6145 166.406 55.0124 167.874 55.808C169.374 56.6037 170.571 57.6062 171.465 58.8156V55.0442H178.215V81.4921H171.465V77.6252C170.603 78.8664 169.406 79.9008 167.874 80.7283C166.374 81.524 164.634 81.9218 162.656 81.9218C160.421 81.9218 158.379 81.3489 156.527 80.2031C154.708 79.0574 153.256 77.4501 152.171 75.3814C151.117 73.2809 150.591 70.8779 150.591 68.1727ZM171.465 68.2682C171.465 66.645 171.145 65.2605 170.507 64.1148C169.869 62.9372 169.007 62.046 167.922 61.4413C166.837 60.8048 165.672 60.4865 164.427 60.4865C163.182 60.4865 162.033 60.7889 160.98 61.3936C159.927 61.9983 159.065 62.8895 158.395 64.067C157.756 65.2128 157.437 66.5813 157.437 68.1727C157.437 69.764 157.756 71.1644 158.395 72.3738C159.065 73.5514 159.927 74.4584 160.98 75.095C162.065 75.7315 163.214 76.0498 164.427 76.0498C165.672 76.0498 166.837 75.7474 167.922 75.1427C169.007 74.5062 169.869 73.615 170.507 72.4693C171.145 71.2917 171.465 69.8913 171.465 68.2682Z" fill="#5FCFCE"/>
<path d="M210.135 55.0442L193.714 94H186.581L192.326 80.8238L181.697 55.0442H189.214L196.06 73.5196L203.002 55.0442H210.135Z" fill="#5FCFCE"/>
<path d="M222.414 47.5967L221.648 70.6552H215.999L215.185 47.5967H222.414ZM218.967 81.8263C217.754 81.8263 216.749 81.4603 215.951 80.7283C215.185 79.9644 214.802 79.0256 214.802 77.9116C214.802 76.7977 215.185 75.8747 215.951 75.1427C216.749 74.3789 217.754 73.997 218.967 73.997C220.148 73.997 221.121 74.3789 221.887 75.1427C222.653 75.8747 223.036 76.7977 223.036 77.9116C223.036 79.0256 222.653 79.9644 221.887 80.7283C221.121 81.4603 220.148 81.8263 218.967 81.8263Z" fill="#5FCFCE"/>
</svg>
