<svg width="24" height="25" viewBox="0 0 24 25" fill="currentColor" xmlns="http://www.w3.org/2000/svg">
<path fill-rule="evenodd" clip-rule="evenodd" d="M12 0.0458984C5.374 0.0458984 0 5.4179 0 12.0459C0 18.6729 5.374 24.0459 12 24.0459C18.627 24.0459 24 18.6729 24 12.0459C24 5.4179 18.627 0.0458984 12 0.0458984ZM15.248 18.3939L14.877 17.0989L15.773 17.9319L16.62 18.7159L18.125 20.0459V7.4879C18.125 6.6899 17.481 6.0459 16.69 6.0459H7.31C6.519 6.0459 5.875 6.6899 5.875 7.4879V16.9519C5.875 17.7499 6.519 18.3939 7.31 18.3939H15.248ZM13.988 15.1879L13.526 14.6209C14.443 14.3619 14.793 13.7879 14.793 13.7879C14.506 13.9769 14.233 14.1099 13.988 14.2009C13.638 14.3479 13.302 14.4459 12.973 14.5019C12.301 14.6279 11.685 14.5929 11.16 14.4949C10.761 14.4179 10.418 14.3059 10.131 14.1939C9.97 14.1309 9.795 14.0539 9.62 13.9559L9.592 13.9399L9.585 13.9369L9.557 13.9209L9.529 13.8999L9.333 13.7809C9.333 13.7809 9.669 14.3409 10.558 14.6069L10.089 15.1879C8.542 15.1389 7.954 14.1239 7.954 14.1239C7.954 11.8699 8.962 10.0429 8.962 10.0429C9.97 9.2869 10.929 9.3079 10.929 9.3079L10.999 9.3919C9.739 9.7559 9.158 10.3089 9.158 10.3089L9.571 10.1059C10.32 9.7769 10.915 9.6859 11.16 9.6649L11.279 9.6509C11.706 9.5949 12.189 9.5809 12.693 9.6369C13.358 9.7139 14.072 9.9099 14.8 10.3089C14.8 10.3089 14.247 9.7839 13.057 9.4199L13.155 9.3079C13.155 9.3079 14.114 9.2869 15.122 10.0429C15.122 10.0429 16.13 11.8699 16.13 14.1239C16.13 14.1239 15.557 15.1009 13.988 15.1879ZM13.288 11.9189C12.889 11.9189 12.574 12.2689 12.574 12.6959C12.574 13.1229 12.896 13.4729 13.288 13.4729C13.687 13.4729 14.002 13.1229 14.002 12.6959C14.002 12.2689 13.687 11.9189 13.288 11.9189ZM10.733 11.9189C10.334 11.9189 10.019 12.2689 10.019 12.6959C10.019 13.1229 10.341 13.4729 10.733 13.4729C11.132 13.4729 11.447 13.1229 11.447 12.6959C11.454 12.2689 11.132 11.9189 10.733 11.9189Z" fill="currentColor"/>
</svg>
