<svg width="48" height="48" viewBox="0 0 48 48" fill="none" xmlns="http://www.w3.org/2000/svg">
<path d="M19.0375 29.5636L13 23.5L19.0375 17.4364L20.4156 18.8864L15.8219 23.5L20.4156 28.1136L19.0375 29.5636ZM14.3125 30.5523H16.2812V33.0568H30.7188V30.5523H32.6875V36.0227C32.6875 36.55 32.4906 37.0114 32.0969 37.4068C31.7031 37.8023 31.2437 38 30.7188 38H16.2812C15.7562 38 15.2969 37.8023 14.9031 37.4068C14.5094 37.0114 14.3125 36.55 14.3125 36.0227V30.5523ZM16.2812 16.0523H14.3125V10.9773C14.3125 10.45 14.5094 9.98864 14.9031 9.59318C15.2969 9.19773 15.7562 9 16.2812 9H30.7188C31.2437 9 31.7031 9.19773 32.0969 9.59318C32.4906 9.98864 32.6875 10.45 32.6875 10.9773V16.0523H30.7188V13.9432H16.2812V16.0523ZM16.2812 35.0341V36.0227H30.7188V35.0341H16.2812ZM16.2812 11.9659H30.7188V10.9773H16.2812V11.9659ZM27.9625 29.5636L26.5844 28.1136L31.1781 23.5L26.5844 18.8864L27.9625 17.4364L34 23.5L27.9625 29.5636Z" fill="#39E19E"/>
</svg>
