<svg width="48" height="48" viewBox="0 0 48 48" fill="none" xmlns="http://www.w3.org/2000/svg">
<path d="M17.087 26.2667C16.458 26.2667 15.9188 26.0444 15.4696 25.6C15.0203 25.1556 14.7957 24.6222 14.7957 24C14.7957 23.3778 15.0203 22.8444 15.4696 22.4C15.9188 21.9556 16.458 21.7333 17.087 21.7333C17.7159 21.7333 18.2551 21.9556 18.7043 22.4C19.1536 22.8444 19.3783 23.3778 19.3783 24C19.3783 24.6222 19.1536 25.1556 18.7043 25.6C18.2551 26.0444 17.7159 26.2667 17.087 26.2667ZM17.087 32C14.8406 32 12.9312 31.2222 11.3587 29.6667C9.78623 28.1111 9 26.2222 9 24C9 21.7778 9.78623 19.8889 11.3587 18.3333C12.9312 16.7778 14.8406 16 17.087 16C18.7043 16 20.1196 16.3778 21.3326 17.1333C22.5457 17.8889 23.5004 19.0333 24.1967 20.5667H36.1924L40 24.3333L34.3728 29.4333L31.4076 27.3L28.4424 29.4333L25.9152 27.4333H24.1967C23.6351 28.7667 22.7534 29.8611 21.5516 30.7167C20.3498 31.5722 18.8616 32 17.087 32ZM17.087 30C18.3899 30 19.5917 29.5722 20.6924 28.7167C21.7931 27.8611 22.5007 26.7667 22.8152 25.4333H26.6565L28.4761 26.9333L31.4413 24.8333L34.2043 26.9L37.0685 24.2667L35.35 22.5667H22.8152C22.5457 21.3222 21.8717 20.25 20.7935 19.35C19.7152 18.45 18.4797 18 17.087 18C15.4022 18 13.9701 18.5833 12.7908 19.75C11.6114 20.9167 11.0217 22.3333 11.0217 24C11.0217 25.6667 11.6114 27.0833 12.7908 28.25C13.9701 29.4167 15.4022 30 17.087 30Z" fill="#39E19E"/>
</svg>
