<svg width="48" height="48" viewBox="0 0 48 48" fill="none" xmlns="http://www.w3.org/2000/svg">
<path d="M35 18.5792V33.25C35 33.7167 34.825 34.125 34.475 34.475C34.125 34.825 33.7167 35 33.25 35H15.75C15.2833 35 14.875 34.825 14.525 34.475C14.175 34.125 14 33.7167 14 33.25V15.75C14 15.2833 14.175 14.875 14.525 14.525C14.875 14.175 15.2833 14 15.75 14H30.4208L35 18.5792ZM33.25 19.3667L29.6333 15.75H15.75V33.25H33.25V19.3667ZM24.4931 31.3542C25.3338 31.3542 26.0507 31.0599 26.6438 30.4714C27.2368 29.883 27.5333 29.1684 27.5333 28.3277C27.5333 27.487 27.2391 26.7701 26.6506 26.1771C26.0621 25.584 25.3476 25.2875 24.5069 25.2875C23.6662 25.2875 22.9493 25.5817 22.3562 26.1702C21.7632 26.7587 21.4667 27.4733 21.4667 28.314C21.4667 29.1547 21.7609 29.8715 22.3494 30.4646C22.9379 31.0576 23.6524 31.3542 24.4931 31.3542ZM17.2958 21.4667H27.7375V17.2958H17.2958V21.4667ZM15.75 19.3667V33.25V15.75V19.3667Z" fill="#39E19E"/>
</svg>
