<svg width="95" height="24" viewBox="0 0 95 24" fill="currentColor" xmlns="http://www.w3.org/2000/svg">
<path d="M61.3934 12.3594L62.0004 6.625H68.0938V8.28125H63.549L63.2533 11.0078C63.4401 10.8984 63.6839 10.7943 63.9848 10.6953C64.2909 10.5964 64.6411 10.5469 65.0354 10.5469C65.5698 10.5469 66.0471 10.6354 66.4673 10.8125C66.8928 10.9896 67.2534 11.2422 67.5491 11.5703C67.8396 11.9036 68.0627 12.3073 68.2183 12.7812C68.374 13.25 68.4518 13.7786 68.4518 14.3672C68.4518 14.888 68.3766 15.3802 68.2261 15.8438C68.0809 16.3021 67.8552 16.7031 67.5491 17.0469C67.2482 17.3906 66.8668 17.6615 66.4051 17.8594C65.9433 18.0573 65.3986 18.1562 64.7708 18.1562C64.2935 18.1562 63.837 18.0885 63.4012 17.9531C62.9654 17.8125 62.5788 17.6042 62.2416 17.3281C61.9044 17.0573 61.6268 16.7214 61.4089 16.3203C61.1962 15.9141 61.0743 15.4479 61.0432 14.9219H62.8564C62.9239 15.4792 63.1262 15.9062 63.4634 16.2031C63.8058 16.5 64.2416 16.6484 64.7708 16.6484C65.0821 16.6484 65.3519 16.5911 65.5802 16.4766C65.8085 16.362 66.0004 16.2005 66.1561 15.9922C66.3013 15.7891 66.4103 15.5443 66.4829 15.2578C66.5555 14.9661 66.5919 14.651 66.5919 14.3125C66.5919 13.9844 66.5478 13.6849 66.4596 13.4141C66.3766 13.138 66.2494 12.8984 66.0782 12.6953C65.907 12.4922 65.6943 12.3359 65.4401 12.2266C65.1859 12.112 64.8902 12.0547 64.5529 12.0547C64.3298 12.0547 64.1353 12.0729 63.9693 12.1094C63.8084 12.1458 63.6658 12.1927 63.5412 12.25C63.4115 12.3125 63.2922 12.3854 63.1833 12.4688C63.0795 12.5469 62.9783 12.6328 62.8798 12.7266L61.3934 12.3594Z" fill="currentColor"/>
<path d="M71.4106 16.875C71.4106 16.5156 71.5247 16.2083 71.753 15.9531C71.9865 15.6979 72.3211 15.5703 72.7569 15.5703C73.1824 15.5703 73.5144 15.6979 73.753 15.9531C73.9917 16.2031 74.111 16.5104 74.111 16.875C74.111 17.2396 73.9891 17.5443 73.7453 17.7891C73.5066 18.0339 73.1772 18.1562 72.7569 18.1562C72.3315 18.1562 71.9995 18.0339 71.7608 17.7891C71.5273 17.5391 71.4106 17.2344 71.4106 16.875Z" fill="currentColor"/>
<path d="M84.3773 7.67188L79.8481 18H77.887L82.4162 8.1875H76.5406V6.625H84.3773V7.67188Z" fill="currentColor"/>
<path d="M89.6926 13.0703L88.4707 14.4453V18H86.5797V6.625H88.4707V11.9766L89.5291 10.5938L92.5175 6.625H94.8055L90.9299 11.6328L95 18H92.7587L89.6926 13.0703Z" fill="currentColor"/>
<path d="M45.9612 15.39L42.2158 17.66L43.202 13.38L39.8948 10.5L44.2579 10.13L45.9612 6.09L47.6646 10.13L52.0276 10.5L48.7205 13.38L49.7066 17.66M55.9224 9.24L48.7603 8.63L45.9612 2L43.1621 8.63L36 9.24L41.4289 13.97L39.8052 21L45.9612 17.27L52.1173 21L50.4836 13.97L55.9224 9.24Z" fill="currentColor"/>
<path d="M12 0C5.373 0 0 5.373 0 12C0 18.627 5.373 24 12 24C18.627 24 24 18.627 24 12C24 5.373 18.627 0 12 0ZM14.218 18.616C13.864 18.685 13.75 18.467 13.75 18.28V16.359C13.75 15.706 13.521 15.28 13.269 15.063C14.829 14.89 16.467 14.298 16.467 11.609C16.467 10.844 16.194 10.22 15.746 9.73C15.818 9.553 16.058 8.841 15.677 7.877C15.677 7.877 15.09 7.689 13.754 8.594C13.193 8.44 12.595 8.363 12 8.36C11.405 8.363 10.807 8.44 10.247 8.595C8.91 7.69 8.322 7.878 8.322 7.878C7.943 8.842 8.182 9.554 8.255 9.73C7.807 10.22 7.533 10.844 7.533 11.609C7.533 14.291 9.167 14.891 10.722 15.068C10.522 15.243 10.341 15.551 10.278 16.004C9.878 16.183 8.865 16.492 8.241 15.422C8.241 15.422 7.871 14.75 7.168 14.7C7.168 14.7 6.485 14.691 7.12 15.126C7.12 15.126 7.58 15.341 7.897 16.15C7.897 16.15 8.302 17.4 10.25 16.976V18.279C10.25 18.464 10.137 18.681 9.788 18.616C7.006 17.691 5 15.067 5 11.975C5 8.108 8.135 4.975 12 4.975C15.865 4.975 19 8.108 19 11.975C19 15.066 16.997 17.69 14.218 18.616Z" fill="currentColor"/>
</svg>
