<svg width="159" height="41" viewBox="0 0 159 41" fill="none" xmlns="http://www.w3.org/2000/svg">
<path d="M104.712 18.3036C104.712 8.19479 96.5159 0 86.4056 0H18.3061C8.19583 0 -0.000181854 8.19479 -0.000181854 18.3036V41H86.4056C96.5159 41 104.712 32.8052 104.712 22.6964V18.3036Z" fill="#39E19E" class="shape"/>
<path d="M11.5654 33.1206V8.36719H28.545V13.3876H17.3427V18.7218H26.5723V23.3587H17.3427V33.1206H11.5654Z" fill="#053204"/>
<path d="M38.904 33.4692C37.3306 33.4692 35.9215 33.2136 34.6768 32.7022C33.4555 32.1909 32.4222 31.4936 31.5768 30.6104C30.7313 29.7272 30.0855 28.7161 29.6393 27.5772C29.2165 26.4383 29.0052 25.2413 29.0052 23.9862C29.0052 22.7079 29.2165 21.4993 29.6393 20.3604C30.0855 19.2215 30.7313 18.2104 31.5768 17.3272C32.4222 16.444 33.4555 15.7467 34.6768 15.2354C35.9215 14.724 37.3306 14.4684 38.904 14.4684C40.4775 14.4684 41.8749 14.724 43.0961 15.2354C44.3173 15.7467 45.3506 16.444 46.1961 17.3272C47.0416 18.2104 47.6874 19.2215 48.1336 20.3604C48.5798 21.4993 48.8029 22.7079 48.8029 23.9862C48.8029 25.2413 48.5798 26.4383 48.1336 27.5772C47.6874 28.7161 47.0416 29.7272 46.1961 30.6104C45.3506 31.4936 44.3173 32.1909 43.0961 32.7022C41.8749 33.2136 40.4775 33.4692 38.904 33.4692ZM34.7824 23.9862C34.7824 24.9392 34.9586 25.7759 35.3109 26.4964C35.6866 27.217 36.1798 27.7748 36.7904 28.1699C37.401 28.565 38.1056 28.7626 38.904 28.7626C39.679 28.7626 40.3718 28.565 40.9825 28.1699C41.6165 27.7515 42.1097 27.1821 42.462 26.4616C42.8143 25.7411 42.9904 24.9159 42.9904 23.9862C42.9904 23.0333 42.8143 22.1966 42.462 21.476C42.1097 20.7555 41.6165 20.1977 40.9825 19.8026C40.3718 19.4074 39.679 19.2099 38.904 19.2099C38.1056 19.2099 37.401 19.4074 36.7904 19.8026C36.1798 20.1977 35.6866 20.7555 35.3109 21.476C34.9586 22.1966 34.7824 23.0333 34.7824 23.9862Z" fill="#053204"/>
<path d="M69.4233 33.1206H63.7869V22.8357C63.7869 21.6271 63.5521 20.7555 63.0824 20.2209C62.6362 19.6631 62.0373 19.3842 61.2858 19.3842C60.7691 19.3842 60.2407 19.5236 59.7006 19.8026C59.1604 20.0815 58.6672 20.465 58.221 20.9531C57.7983 21.4412 57.4695 21.999 57.2346 22.6265V33.1206H51.5983V14.817H56.671V17.885C57.1407 17.1645 57.7278 16.5486 58.4324 16.0373C59.1369 15.5259 59.9471 15.1424 60.8631 14.8867C61.779 14.6078 62.7771 14.4684 63.8574 14.4684C65.0551 14.4684 66.018 14.6892 66.746 15.1308C67.4975 15.5492 68.0612 16.107 68.4369 16.8043C68.8362 17.5015 69.0945 18.2569 69.2119 19.0704C69.3528 19.8607 69.4233 20.6393 69.4233 21.4063V33.1206Z" fill="#053204"/>
<path d="M81.975 33.4692C80.4015 33.4692 78.9924 33.2136 77.7477 32.7022C76.5265 32.1909 75.4931 31.4936 74.6477 30.6104C73.8022 29.7272 73.1564 28.7161 72.7102 27.5772C72.2874 26.4383 72.0761 25.2413 72.0761 23.9862C72.0761 22.7079 72.2874 21.4993 72.7102 20.3604C73.1564 19.2215 73.8022 18.2104 74.6477 17.3272C75.4931 16.444 76.5265 15.7467 77.7477 15.2354C78.9924 14.724 80.4015 14.4684 81.975 14.4684C83.5484 14.4684 84.9458 14.724 86.167 15.2354C87.3882 15.7467 88.4216 16.444 89.267 17.3272C90.1125 18.2104 90.7583 19.2215 91.2045 20.3604C91.6507 21.4993 91.8738 22.7079 91.8738 23.9862C91.8738 25.2413 91.6507 26.4383 91.2045 27.5772C90.7583 28.7161 90.1125 29.7272 89.267 30.6104C88.4216 31.4936 87.3882 32.1909 86.167 32.7022C84.9458 33.2136 83.5484 33.4692 81.975 33.4692ZM77.8534 23.9862C77.8534 24.9392 78.0295 25.7759 78.3818 26.4964C78.7575 27.217 79.2507 27.7748 79.8613 28.1699C80.4719 28.565 81.1765 28.7626 81.975 28.7626C82.75 28.7626 83.4428 28.565 84.0534 28.1699C84.6875 27.7515 85.1806 27.1821 85.5329 26.4616C85.8852 25.7411 86.0613 24.9159 86.0613 23.9862C86.0613 23.0333 85.8852 22.1966 85.5329 21.476C85.1806 20.7555 84.6875 20.1977 84.0534 19.8026C83.4428 19.4074 82.75 19.2099 81.975 19.2099C81.1765 19.2099 80.4719 19.4074 79.8613 19.8026C79.2507 20.1977 78.7575 20.7555 78.3818 21.476C78.0295 22.1966 77.8534 23.0333 77.8534 23.9862Z" fill="#053204"/>
<path d="M101.75 33.4692C100.176 33.4692 98.6381 33.2136 97.1351 32.7022C95.6321 32.1909 94.3639 31.4355 93.3305 30.4361L95.268 26.9148C96.3953 27.7283 97.4874 28.3442 98.5442 28.7626C99.6245 29.181 100.634 29.3901 101.574 29.3901C102.302 29.3901 102.865 29.2739 103.265 29.0415C103.664 28.8091 103.864 28.4488 103.864 27.9607C103.864 27.6121 103.746 27.3448 103.511 27.1589C103.276 26.9497 102.912 26.7637 102.419 26.601C101.949 26.4383 101.362 26.264 100.658 26.0781C99.2487 25.6132 98.0745 25.16 97.1351 24.7184C96.1957 24.2768 95.4912 23.7422 95.0215 23.1146C94.5518 22.4638 94.3169 21.6271 94.3169 20.6044C94.3169 19.3726 94.6222 18.3034 95.2328 17.3969C95.8669 16.4672 96.7593 15.7467 97.9101 15.2354C99.0609 14.724 100.435 14.4684 102.032 14.4684C103.3 14.4684 104.533 14.6659 105.731 15.0611C106.952 15.4562 108.091 16.1186 109.148 17.0483L106.964 20.5347C105.907 19.8142 104.967 19.2912 104.145 18.9658C103.323 18.6404 102.525 18.4777 101.75 18.4777C101.351 18.4777 100.987 18.5242 100.658 18.6172C100.329 18.7102 100.059 18.8729 99.8476 19.1053C99.6597 19.3145 99.5658 19.5934 99.5658 19.942C99.5658 20.2907 99.6597 20.5696 99.8476 20.7788C100.059 20.9879 100.376 21.1739 100.799 21.3366C101.245 21.476 101.797 21.6503 102.454 21.8595C103.981 22.3011 105.249 22.7544 106.259 23.2192C107.269 23.6608 108.02 24.2187 108.514 24.8927C109.03 25.5435 109.289 26.4151 109.289 27.5075C109.289 29.3669 108.607 30.8312 107.245 31.9003C105.907 32.9463 104.075 33.4692 101.75 33.4692Z" fill="#053204"/>
<path d="M124.019 32.1444C123.503 32.3536 122.927 32.5628 122.293 32.7719C121.683 32.9811 121.037 33.1438 120.356 33.26C119.675 33.3995 119.005 33.4692 118.348 33.4692C117.408 33.4692 116.539 33.3181 115.741 33.016C114.966 32.6906 114.344 32.1676 113.874 31.4471C113.428 30.7266 113.205 29.7736 113.205 28.5883V19.0356H110.844V14.817H113.205V8.99474H118.841V14.817H122.61V19.0356H118.841V26.6708C118.841 27.2751 118.994 27.7167 119.299 27.9956C119.604 28.2513 119.992 28.3791 120.461 28.3791C120.861 28.3791 121.283 28.3094 121.73 28.1699C122.199 28.0305 122.599 27.8794 122.927 27.7167L124.019 32.1444Z" fill="#053204"/>
<path d="M134.851 33.4692C133.278 33.4692 131.88 33.2252 130.659 32.7371C129.438 32.2257 128.393 31.5401 127.524 30.6801C126.678 29.8201 126.033 28.8323 125.586 27.7167C125.14 26.5778 124.917 25.3924 124.917 24.1606C124.917 22.3941 125.305 20.7904 126.08 19.3493C126.878 17.885 128.017 16.7113 129.497 15.8281C130.976 14.9216 132.761 14.4684 134.851 14.4684C136.941 14.4684 138.714 14.91 140.171 15.7932C141.65 16.6764 142.777 17.8386 143.552 19.2796C144.327 20.6974 144.715 22.243 144.715 23.9165C144.715 24.2419 144.691 24.5673 144.644 24.8927C144.621 25.1949 144.597 25.4621 144.574 25.6946H130.906C130.976 26.5081 131.199 27.1937 131.575 27.7515C131.974 28.3094 132.479 28.7394 133.09 29.0415C133.7 29.3204 134.346 29.4599 135.027 29.4599C135.873 29.4599 136.66 29.2623 137.388 28.8672C138.139 28.4721 138.656 27.9375 138.938 27.2634L143.728 28.5883C143.259 29.5412 142.589 30.3896 141.721 31.1333C140.875 31.8539 139.865 32.4233 138.691 32.8417C137.54 33.26 136.26 33.4692 134.851 33.4692ZM130.765 22.2779H138.797C138.703 21.5109 138.48 20.8485 138.127 20.2907C137.775 19.7096 137.305 19.268 136.718 18.9658C136.131 18.6404 135.485 18.4777 134.781 18.4777C134.053 18.4777 133.395 18.6404 132.808 18.9658C132.244 19.268 131.786 19.7096 131.434 20.2907C131.082 20.8485 130.859 21.5109 130.765 22.2779Z" fill="#053204"/>
<path d="M159 19.5934C157.638 19.5934 156.405 19.8142 155.301 20.2558C154.197 20.6742 153.399 21.3017 152.906 22.1384V33.1206H147.269V14.817H152.448V18.5126C153.082 17.2807 153.904 16.3162 154.914 15.6189C155.924 14.9216 156.98 14.5613 158.084 14.5381C158.342 14.5381 158.53 14.5381 158.648 14.5381C158.789 14.5381 158.906 14.5497 159 14.573V19.5934Z" fill="#053204"/>
</svg>
