<svg width="24" height="25" viewBox="0 0 24 25" fill="currentColor" xmlns="http://www.w3.org/2000/svg">
<path d="M14.238 15.3939C14.323 15.4779 14.323 15.6149 14.238 15.6999C13.773 16.1619 13.044 16.3869 12.007 16.3869L11.999 16.3849L11.991 16.3869C10.955 16.3869 10.225 16.1619 9.76 15.6989C9.675 15.6149 9.675 15.4779 9.76 15.3939C9.844 15.3099 9.982 15.3099 10.067 15.3939C10.446 15.7709 11.075 15.9549 11.991 15.9549L11.999 15.9569L12.007 15.9549C12.922 15.9549 13.551 15.7709 13.931 15.3939C14.016 15.3099 14.154 15.3099 14.238 15.3939ZM10.798 12.9759C10.798 12.4689 10.384 12.0569 9.876 12.0569C9.367 12.0569 8.953 12.4689 8.953 12.9759C8.953 13.4819 9.367 13.8939 9.876 13.8939C10.384 13.8949 10.798 13.4829 10.798 12.9759ZM24 12.0459C24 18.6729 18.627 24.0459 12 24.0459C5.373 24.0459 0 18.6729 0 12.0459C0 5.4189 5.373 0.0458984 12 0.0458984C18.627 0.0458984 24 5.4189 24 12.0459ZM19 11.9169C19 11.0659 18.305 10.3739 17.45 10.3739C17.033 10.3739 16.655 10.5409 16.376 10.8089C15.32 10.1139 13.891 9.6719 12.31 9.6149L13.175 6.8909L15.518 7.4399L15.515 7.4739C15.515 8.1699 16.084 8.7359 16.783 8.7359C17.482 8.7359 18.05 8.1699 18.05 7.4739C18.05 6.7779 17.482 6.2119 16.783 6.2119C16.246 6.2119 15.789 6.5469 15.604 7.0159L13.079 6.4239C12.969 6.3969 12.856 6.4609 12.822 6.5689L11.857 9.6069C10.201 9.6269 8.702 10.0729 7.599 10.7879C7.322 10.5329 6.955 10.3729 6.549 10.3729C5.695 10.3739 5 11.0659 5 11.9169C5 12.4829 5.311 12.9729 5.768 13.2419C5.738 13.4059 5.718 13.5729 5.718 13.7419C5.718 16.0229 8.523 17.8789 11.971 17.8789C15.419 17.8789 18.224 16.0229 18.224 13.7419C18.224 13.5819 18.207 13.4249 18.18 13.2699C18.666 13.0089 19 12.5039 19 11.9169ZM14.128 12.0579C13.619 12.0579 13.206 12.4699 13.206 12.9769C13.206 13.4829 13.62 13.8949 14.128 13.8949C14.636 13.8949 15.05 13.4829 15.05 12.9769C15.05 12.4699 14.637 12.0579 14.128 12.0579Z" fill="currentColor"/>
</svg>
