<svg width="24" height="25" viewBox="0 0 24 25" fill="currentColor" xmlns="http://www.w3.org/2000/svg">
<path d="M12 0.0458984C5.373 0.0458984 0 5.4189 0 12.0459C0 18.6729 5.373 24.0459 12 24.0459C18.627 24.0459 24 18.6729 24 12.0459C24 5.4189 18.627 0.0458984 12 0.0458984ZM18.066 9.6909C18.249 13.7309 15.236 18.2349 9.902 18.2349C8.28 18.2349 6.771 17.7589 5.5 16.9439C7.024 17.1239 8.545 16.6999 9.752 15.7549C8.496 15.7319 7.435 14.9009 7.068 13.7599C7.519 13.8459 7.963 13.8209 8.366 13.7109C6.985 13.4329 6.031 12.1889 6.062 10.8579C6.45 11.0729 6.892 11.2019 7.363 11.2169C6.084 10.3619 5.722 8.6729 6.474 7.3819C7.89 9.1199 10.007 10.2629 12.394 10.3829C11.975 8.5869 13.338 6.8559 15.193 6.8559C16.018 6.8559 16.765 7.2049 17.289 7.7629C17.943 7.6349 18.559 7.3949 19.113 7.0659C18.898 7.7369 18.443 8.2989 17.85 8.6549C18.431 8.5849 18.985 8.4309 19.499 8.2019C19.115 8.7799 18.629 9.2859 18.066 9.6909Z" fill="currentColor"/>
</svg>
