<svg width="1008" height="207" viewBox="0 0 1008 207" fill="none" xmlns="http://www.w3.org/2000/svg">
<path d="M261.476 167.128V43.579H347.424V68.6369H290.72V95.2609H337.438V118.405H290.72V167.128H261.476Z" fill="white"/>
<path d="M399.86 168.868C391.895 168.868 384.762 167.592 378.462 165.04C372.28 162.488 367.05 159.008 362.77 154.599C358.491 150.191 355.222 145.145 352.963 139.46C350.823 133.776 349.753 127.801 349.753 121.537C349.753 115.156 350.823 109.124 352.963 103.44C355.222 97.7551 358.491 92.7087 362.77 88.3004C367.05 83.892 372.28 80.4118 378.462 77.8596C384.762 75.3074 391.895 74.0313 399.86 74.0313C407.825 74.0313 414.898 75.3074 421.079 77.8596C427.261 80.4118 432.491 83.892 436.771 88.3004C441.051 92.7087 444.32 97.7551 446.578 103.44C448.837 109.124 449.966 115.156 449.966 121.537C449.966 127.801 448.837 133.776 446.578 139.46C444.32 145.145 441.051 150.191 436.771 154.599C432.491 159.008 427.261 162.488 421.079 165.04C414.898 167.592 407.825 168.868 399.86 168.868ZM378.997 121.537C378.997 126.293 379.889 130.47 381.672 134.066C383.574 137.662 386.07 140.446 389.161 142.418C392.252 144.391 395.818 145.377 399.86 145.377C403.783 145.377 407.29 144.391 410.38 142.418C413.59 140.33 416.086 137.488 417.87 133.892C419.653 130.296 420.544 126.177 420.544 121.537C420.544 116.781 419.653 112.604 417.87 109.008C416.086 105.412 413.59 102.627 410.38 100.655C407.29 98.6831 403.783 97.6971 399.86 97.6971C395.818 97.6971 392.252 98.6831 389.161 100.655C386.07 102.627 383.574 105.412 381.672 109.008C379.889 112.604 378.997 116.781 378.997 121.537Z" fill="white"/>
<path d="M554.343 167.128H525.813V115.794C525.813 109.762 524.624 105.412 522.247 102.743C519.988 99.9592 516.957 98.5671 513.152 98.5671C510.537 98.5671 507.862 99.2632 505.128 100.655C502.394 102.047 499.898 103.962 497.639 106.398C495.499 108.834 493.835 111.618 492.646 114.75V167.128H464.116V75.7714H489.793V91.0846C492.171 87.4883 495.143 84.4141 498.709 81.8619C502.275 79.3097 506.376 77.3955 511.013 76.1194C515.649 74.7273 520.701 74.0313 526.169 74.0313C532.232 74.0313 537.106 75.1334 540.791 77.3375C544.595 79.4257 547.448 82.2099 549.35 85.6902C551.371 89.1704 552.679 92.9407 553.273 97.001C553.987 100.945 554.343 104.832 554.343 108.66V167.128Z" fill="white"/>
<path d="M617.878 168.868C609.913 168.868 602.78 167.592 596.48 165.04C590.298 162.488 585.068 159.008 580.788 154.599C576.509 150.191 573.239 145.145 570.981 139.46C568.841 133.776 567.771 127.801 567.771 121.537C567.771 115.156 568.841 109.124 570.981 103.44C573.239 97.7551 576.509 92.7087 580.788 88.3004C585.068 83.892 590.298 80.4118 596.48 77.8596C602.78 75.3074 609.913 74.0313 617.878 74.0313C625.842 74.0313 632.916 75.3074 639.097 77.8596C645.279 80.4118 650.509 83.892 654.789 88.3004C659.068 92.7087 662.337 97.7551 664.596 103.44C666.855 109.124 667.984 115.156 667.984 121.537C667.984 127.801 666.855 133.776 664.596 139.46C662.337 145.145 659.068 150.191 654.789 154.599C650.509 159.008 645.279 162.488 639.097 165.04C632.916 167.592 625.842 168.868 617.878 168.868ZM597.015 121.537C597.015 126.293 597.906 130.47 599.69 134.066C601.592 137.662 604.088 140.446 607.179 142.418C610.269 144.391 613.836 145.377 617.878 145.377C621.801 145.377 625.307 144.391 628.398 142.418C631.608 140.33 634.104 137.488 635.887 133.892C637.671 130.296 638.562 126.177 638.562 121.537C638.562 116.781 637.671 112.604 635.887 109.008C634.104 105.412 631.608 102.627 628.398 100.655C625.307 98.6831 621.801 97.6971 617.878 97.6971C613.836 97.6971 610.269 98.6831 607.179 100.655C604.088 102.627 601.592 105.412 599.69 109.008C597.906 112.604 597.015 116.781 597.015 121.537Z" fill="white"/>
<path d="M717.975 168.868C710.01 168.868 702.224 167.592 694.616 165.04C687.008 162.488 680.588 158.718 675.358 153.729L685.165 136.154C690.871 140.214 696.399 143.289 701.748 145.377C707.217 147.465 712.328 148.509 717.083 148.509C720.769 148.509 723.622 147.929 725.643 146.769C727.663 145.609 728.674 143.811 728.674 141.374C728.674 139.634 728.079 138.3 726.891 137.372C725.702 136.328 723.859 135.4 721.363 134.588C718.985 133.776 716.013 132.906 712.447 131.978C705.315 129.657 699.371 127.395 694.616 125.191C689.861 122.987 686.294 120.319 683.917 117.187C681.539 113.938 680.351 109.762 680.351 104.658C680.351 98.5091 681.896 93.1727 684.987 88.6484C688.196 84.008 692.714 80.4118 698.539 77.8596C704.364 75.3074 711.318 74.0313 719.401 74.0313C725.821 74.0313 732.062 75.0174 738.125 76.9895C744.306 78.9617 750.072 82.2679 755.421 86.9083L744.365 104.31C739.016 100.713 734.261 98.1031 730.1 96.479C725.94 94.8549 721.898 94.0428 717.975 94.0428C715.954 94.0428 714.111 94.2748 712.447 94.7389C710.783 95.2029 709.416 96.0149 708.346 97.175C707.395 98.2191 706.919 99.6112 706.919 101.351C706.919 103.091 707.395 104.484 708.346 105.528C709.416 106.572 711.021 107.5 713.16 108.312C715.419 109.008 718.213 109.878 721.541 110.922C729.268 113.126 735.688 115.388 740.799 117.709C745.911 119.913 749.715 122.697 752.211 126.061C754.827 129.309 756.134 133.66 756.134 139.112C756.134 148.393 752.687 155.701 745.792 161.038C739.016 166.258 729.744 168.868 717.975 168.868Z" fill="white"/>
<path d="M830.699 162.256C828.084 163.3 825.171 164.344 821.962 165.388C818.871 166.432 815.602 167.244 812.154 167.824C808.707 168.52 805.319 168.868 801.99 168.868C797.235 168.868 792.837 168.114 788.795 166.606C784.872 164.982 781.722 162.372 779.345 158.776C777.086 155.179 775.956 150.423 775.956 144.507V96.827H764.009V75.7714H775.956V46.7112H804.487V75.7714H823.567V96.827H804.487V134.936C804.487 137.952 805.26 140.156 806.805 141.548C808.35 142.824 810.312 143.463 812.689 143.463C814.71 143.463 816.85 143.115 819.109 142.418C821.486 141.722 823.507 140.968 825.171 140.156L830.699 162.256Z" fill="white"/>
<path d="M885.528 168.868C877.564 168.868 870.49 167.65 864.309 165.214C858.127 162.662 852.837 159.24 848.439 154.947C844.159 150.655 840.89 145.725 838.631 140.156C836.373 134.472 835.243 128.555 835.243 122.407C835.243 113.59 837.205 105.586 841.128 98.3931C845.17 91.0846 850.935 85.2261 858.424 80.8178C865.914 76.2935 874.948 74.0313 885.528 74.0313C896.108 74.0313 905.083 76.2355 912.454 80.6438C919.943 85.0521 925.649 90.8526 929.572 98.0451C933.495 105.122 935.456 112.836 935.456 121.189C935.456 122.813 935.338 124.437 935.1 126.061C934.981 127.569 934.862 128.903 934.743 130.064H865.557C865.914 134.124 867.043 137.546 868.945 140.33C870.966 143.115 873.522 145.261 876.612 146.769C879.703 148.161 882.972 148.857 886.42 148.857C890.699 148.857 894.682 147.871 898.367 145.899C902.171 143.927 904.786 141.258 906.213 137.894L930.464 144.507C928.086 149.263 924.698 153.497 920.3 157.21C916.02 160.806 910.908 163.648 904.965 165.736C899.14 167.824 892.661 168.868 885.528 168.868ZM864.844 113.01H905.499C905.024 109.182 903.895 105.876 902.112 103.091C900.328 100.191 897.951 97.9871 894.979 96.479C892.007 94.8549 888.738 94.0428 885.172 94.0428C881.486 94.0428 878.158 94.8549 875.186 96.479C872.333 97.9871 870.015 100.191 868.232 103.091C866.449 105.876 865.319 109.182 864.844 113.01Z" fill="white"/>
<path d="M1007.77 99.6112C1000.87 99.6112 994.63 100.713 989.043 102.917C983.456 105.006 979.414 108.138 976.917 112.314V167.128H948.387V75.7714H974.599V94.2168C977.809 88.0683 981.97 83.254 987.081 79.7737C992.193 76.2935 997.542 74.4953 1003.13 74.3793C1004.44 74.3793 1005.39 74.3793 1005.98 74.3793C1006.7 74.3793 1007.29 74.4373 1007.77 74.5533V99.6112Z" fill="white"/>
<path d="M196.105 97.1633C196.105 43.5015 152.205 0 98.0524 0V0C43.8994 0 -0.00028038 43.5015 -0.00028038 97.1633V207H91.6576C149.342 207 196.105 160.661 196.105 103.5V97.1633Z" fill="#39E19E"/>
</svg>
