<svg width="120" height="32" viewBox="0 0 99 24" fill="currentColor" xmlns="http://www.w3.org/2000/svg">
  <!-- Star Icon -->
  <path d="M45.9612 15.39L42.2158 17.66L43.202 13.38L39.8948 10.5L44.2579 10.13L45.9612 6.09L47.6646 10.13L52.0276 10.5L48.7205 13.38L49.7066 17.66M55.9224 9.24L48.7603 8.63L45.9612 2L43.1621 8.63L36 9.24L41.4289 13.97L39.8052 21L45.9612 17.27L52.1173 21L50.4836 13.97L55.9224 9.24Z" fill="currentColor"/>
  
  <!-- Github Icon -->
  <path d="M12 0C5.373 0 0 5.373 0 12C0 18.627 5.373 24 12 24C18.627 24 24 18.627 24 12C24 5.373 18.627 0 12 0ZM14.218 18.616C13.864 18.685 13.75 18.467 13.75 18.28V16.359C13.75 15.706 13.521 15.28 13.269 15.063C14.829 14.89 16.467 14.298 16.467 11.609C16.467 10.844 16.194 10.22 15.746 9.73C15.818 9.553 16.058 8.841 15.677 7.877C15.677 7.877 15.09 7.689 13.754 8.594C13.193 8.44 12.595 8.363 12 8.36C11.405 8.363 10.807 8.44 10.247 8.595C8.91 7.69 8.322 7.878 8.322 7.878C7.943 8.842 8.182 9.554 8.255 9.73C7.807 10.22 7.533 10.844 7.533 11.609C7.533 14.291 9.167 14.891 10.722 15.068C10.522 15.243 10.341 15.551 10.278 16.004C9.878 16.183 8.865 16.492 8.241 15.422C8.241 15.422 7.871 14.75 7.168 14.7C7.168 14.7 6.485 14.691 7.12 15.126C7.12 15.126 7.58 15.341 7.897 16.15C7.897 16.15 8.302 17.4 10.25 16.976V18.279C10.25 18.464 10.137 18.681 9.788 18.616C7.006 17.691 5 15.067 5 11.975C5 8.108 8.135 4.975 12 4.975C15.865 4.975 19 8.108 19 11.975C19 15.066 16.997 17.69 14.218 18.616Z" fill="currentColor"/>
  
  <!-- Digit -->
  <text x="65" y="18" font-family="Arial, sans-serif" font-size="14" fill="currentColor">6.4K</text>
</svg>
