<svg width="177" height="94" viewBox="0 0 177 94" fill="none" xmlns="http://www.w3.org/2000/svg">
<path d="M15.4925 18.8346C15.4925 19.9059 15.2257 20.913 14.6923 21.8558C14.1801 22.7986 13.4119 23.5914 12.3876 24.2342C11.3846 24.877 10.1896 25.2627 8.80255 25.3913V27.9947H6.72195V25.3913C4.71603 25.1984 3.09423 24.5663 1.85654 23.495C0.618846 22.4236 0 21.0094 0 19.2524H3.90513C3.96915 20.088 4.23589 20.7844 4.70536 21.3415C5.17483 21.8772 5.84703 22.2201 6.72195 22.37V15.2991C5.2922 14.9348 4.1292 14.5705 3.23294 14.2063C2.33668 13.8206 1.56845 13.2206 0.928269 12.4064C0.309423 11.5921 0 10.4779 0 9.06373C0 7.28526 0.618846 5.8175 1.85654 4.66043C3.09423 3.48193 4.71603 2.79626 6.72195 2.60341V0H8.80255V2.60341C10.6804 2.77483 12.1849 3.37479 13.3159 4.4033C14.4682 5.41038 15.119 6.80315 15.2684 8.58161H11.3633C11.2993 7.91737 11.0432 7.32812 10.5951 6.81386C10.1469 6.27818 9.54943 5.91392 8.80255 5.72108V12.6635C10.2323 13.0063 11.3953 13.3706 12.2916 13.7563C13.1878 14.1206 13.9454 14.7098 14.5642 15.524C15.1831 16.3168 15.4925 17.4204 15.4925 18.8346ZM3.71307 8.87088C3.71307 9.7494 3.96915 10.4351 4.4813 10.9279C5.01478 11.4207 5.76167 11.8171 6.72195 12.1171V5.62465C5.80435 5.73179 5.06813 6.06391 4.51331 6.62102C3.97982 7.17813 3.71307 7.92808 3.71307 8.87088ZM8.80255 22.37C9.74149 22.2201 10.4777 21.8451 11.0112 21.2451C11.5447 20.6237 11.8114 19.8845 11.8114 19.0274C11.8114 18.1703 11.5447 17.5061 11.0112 17.0347C10.499 16.5418 9.76283 16.1454 8.80255 15.8454V22.37Z" fill="#5FCFCE"/>
<path d="M107.012 71.5215L101.571 94H99.3301L104.752 71.5215H107.012Z" fill="#5FCFCE"/>
<path d="M129.728 76.5234V90.4846H127.447V80.9227L123.206 90.4846H121.625L117.364 80.9227V90.4846H115.083V76.5234H117.544L122.426 87.4714L127.287 76.5234H129.728Z" fill="#5FCFCE"/>
<path d="M137.507 90.6654C136.466 90.6654 135.526 90.431 134.686 89.9623C133.846 89.4802 133.185 88.8106 132.705 87.9535C132.225 87.083 131.985 86.0786 131.985 84.9403C131.985 83.8154 132.232 82.8177 132.725 81.9472C133.219 81.0767 133.892 80.4071 134.746 79.9384C135.599 79.4697 136.553 79.2353 137.607 79.2353C138.66 79.2353 139.614 79.4697 140.467 79.9384C141.321 80.4071 141.995 81.0767 142.488 81.9472C142.982 82.8177 143.228 83.8154 143.228 84.9403C143.228 86.0652 142.975 87.0629 142.468 87.9334C141.961 88.8039 141.268 89.4802 140.387 89.9623C139.521 90.431 138.56 90.6654 137.507 90.6654ZM137.507 88.6767C138.093 88.6767 138.64 88.5361 139.147 88.2548C139.667 87.9736 140.087 87.5517 140.407 86.9893C140.728 86.4268 140.888 85.7438 140.888 84.9403C140.888 84.1368 140.734 83.4605 140.427 82.9114C140.121 82.3489 139.714 81.9271 139.207 81.6459C138.7 81.3646 138.153 81.224 137.567 81.224C136.98 81.224 136.433 81.3646 135.926 81.6459C135.433 81.9271 135.039 82.3489 134.746 82.9114C134.452 83.4605 134.306 84.1368 134.306 84.9403C134.306 86.1322 134.606 87.0562 135.206 87.7124C135.819 88.3553 136.586 88.6767 137.507 88.6767Z" fill="#5FCFCE"/>
<path d="M151.044 79.2353C151.911 79.2353 152.685 79.4161 153.365 79.7777C154.059 80.1393 154.599 80.6749 154.986 81.3847C155.372 82.0945 155.566 82.9516 155.566 83.956V90.4846H153.305V84.2975C153.305 83.3065 153.058 82.5498 152.565 82.0275C152.071 81.4919 151.398 81.224 150.544 81.224C149.691 81.224 149.01 81.4919 148.504 82.0275C148.01 82.5498 147.763 83.3065 147.763 84.2975V90.4846H145.483V79.4161H147.763V80.6816C148.137 80.2263 148.61 79.8714 149.184 79.617C149.771 79.3625 150.391 79.2353 151.044 79.2353Z" fill="#5FCFCE"/>
<path d="M161.136 81.2843V87.4111C161.136 87.8263 161.229 88.1276 161.416 88.3151C161.616 88.4892 161.949 88.5762 162.416 88.5762H163.816V90.4846H162.016C160.989 90.4846 160.202 90.2435 159.655 89.7614C159.108 89.2793 158.835 88.4959 158.835 87.4111V81.2843H157.535V79.4161H158.835V76.664H161.136V79.4161H163.816V81.2843H161.136Z" fill="#5FCFCE"/>
<path d="M171.62 79.2353C172.46 79.2353 173.207 79.4161 173.861 79.7777C174.528 80.1393 175.048 80.6749 175.421 81.3847C175.808 82.0945 176.001 82.9516 176.001 83.956V90.4846H173.741V84.2975C173.741 83.3065 173.494 82.5498 173 82.0275C172.507 81.4919 171.833 81.224 170.98 81.224C170.126 81.224 169.446 81.4919 168.939 82.0275C168.446 82.5498 168.199 83.3065 168.199 84.2975V90.4846H165.918V75.6194H168.199V80.7017C168.586 80.233 169.073 79.8714 169.659 79.617C170.26 79.3625 170.913 79.2353 171.62 79.2353Z" fill="#5FCFCE"/>
<path d="M27.2871 45.4071C27.2871 31.5062 29.6078 20.6586 34.2491 12.8645C38.9705 4.98996 47.0528 1.0527 58.4961 1.0527C69.9395 1.0527 77.9818 4.98996 82.6231 12.8645C87.3445 20.6586 89.7052 31.5062 89.7052 45.4071C89.7052 59.4687 87.3445 70.477 82.6231 78.4318C77.9818 86.3064 69.9395 90.2436 58.4961 90.2436C47.0528 90.2436 38.9705 86.3064 34.2491 78.4318C29.6078 70.477 27.2871 59.4687 27.2871 45.4071ZM76.2613 45.4071C76.2613 38.8986 75.8212 33.3945 74.9409 28.8947C74.1407 24.395 72.4602 20.739 69.8994 17.9267C67.3387 15.034 63.5376 13.5876 58.4961 13.5876C53.4547 13.5876 49.6536 15.034 47.0928 17.9267C44.5321 20.739 42.8116 24.395 41.9313 28.8947C41.1311 33.3945 40.731 38.8986 40.731 45.4071C40.731 52.1567 41.1311 57.8215 41.9313 62.4016C42.7316 66.9817 44.4121 70.6779 46.9728 73.4902C49.6136 76.3025 53.4547 77.7087 58.4961 77.7087C63.5376 77.7087 67.3387 76.3025 69.8994 73.4902C72.5402 70.6779 74.2607 66.9817 75.0609 62.4016C75.8612 57.8215 76.2613 52.1567 76.2613 45.4071Z" fill="#5FCFCE"/>
</svg>
